<?xml version="1.0" standalone="no"?>
<!DOCTYPE svg PUBLIC "-//W3C//DTD SVG 20010904//EN"
 "http://www.w3.org/TR/2001/REC-SVG-20010904/DTD/svg10.dtd">
<svg version="1.0" xmlns="http://www.w3.org/2000/svg"
 width="500.000000pt" height="500.000000pt" viewBox="0 0 500.000000 500.000000"
 preserveAspectRatio="xMidYMid meet">

<g transform="translate(0.000000,500.000000) scale(0.100000,-0.100000)"
fill="#000000" stroke="none">
<path d="M2335 4054 c-317 -34 -655 -179 -883 -379 -339 -299 -522 -707 -522
-1167 0 -253 43 -444 159 -711 l21 -48 53 103 c142 274 345 516 646 768 273
228 649 431 949 511 l78 21 22 58 c60 155 233 261 403 247 91 -8 169 -45 234
-111 173 -178 121 -469 -104 -578 -61 -30 -74 -33 -166 -33 -73 0 -112 5 -144
18 l-43 18 -45 -26 c-90 -53 -241 -176 -339 -277 -234 -238 -396 -532 -472
-858 -28 -119 -46 -313 -39 -412 7 -95 25 -229 31 -235 11 -12 223 -32 326
-32 421 -1 817 165 1120 469 136 136 222 254 295 405 66 135 106 249 136 386
20 89 23 133 23 304 0 168 -3 217 -21 305 -133 634 -593 1094 -1228 1227 -94
20 -156 26 -285 28 -91 2 -183 1 -205 -1z m323 -196 c30 -30 -1 -73 -36 -51
-23 14 -25 29 -7 47 20 19 27 20 43 4z m-432 -93 c8 -20 -13 -45 -32 -38 -8 3
-14 16 -14 29 0 17 6 24 20 24 11 0 23 -7 26 -15z m924 -55 c0 -5 -7 -10 -15
-10 -8 0 -15 5 -15 10 0 6 7 10 15 10 8 0 15 -4 15 -10z m-306 -95 c-11 -7
-20 -9 -22 -4 -2 5 -11 9 -20 9 -15 1 -15 2 1 14 9 7 17 19 17 26 0 9 8 5 21
-9 20 -22 20 -23 3 -36z m-964 20 c0 -19 -20 -29 -32 -17 -15 15 -2 43 17 36
8 -3 15 -12 15 -19z m718 -178 c2 -10 -3 -17 -12 -17 -10 0 -16 9 -16 21 0 24
23 21 28 -4z m-354 -76 c6 -8 24 -19 40 -26 l28 -12 -38 -19 c-31 -15 -41 -27
-50 -59 l-11 -40 -7 37 c-7 39 -37 68 -68 68 -10 0 -18 5 -18 10 0 6 8 10 18
10 31 0 59 28 67 67 l8 38 10 -30 c5 -16 15 -36 21 -44z m-600 27 c16 -26 -4
-53 -40 -53 -23 0 -30 5 -32 23 -7 47 47 69 72 30z m240 -313 c3 -9 -1 -18
-10 -22 -19 -7 -39 11 -30 26 10 16 33 13 40 -4z m-499 -38 c-20 -11 -29 -3
-21 19 5 13 9 14 22 3 14 -11 14 -13 -1 -22z m284 -197 c16 0 14 -6 -13 -33
-22 -22 -24 -23 -35 -5 -6 10 -19 18 -29 18 -13 0 -10 6 13 25 26 20 32 22 41
9 6 -7 16 -14 23 -14z m2156 -70 c0 -20 -6 -26 -26 -28 -17 -2 -29 3 -32 12
-11 28 4 47 32 44 20 -2 26 -8 26 -28z m-2555 -66 c11 -12 11 -18 -1 -30 -13
-12 -18 -12 -34 0 -16 12 -17 16 -6 30 17 20 25 20 41 0z m2261 -396 c16 -31
33 -45 81 -68 33 -16 78 -32 100 -35 49 -9 40 -17 -32 -34 -113 -27 -156 -70
-179 -179 -6 -29 -11 -74 -12 -100 -1 -58 -8 -42 -38 82 -32 134 -59 160 -201
197 -37 10 -42 13 -25 19 11 5 46 18 78 30 70 27 102 51 124 93 19 36 42 135
44 187 1 24 7 5 20 -59 11 -51 29 -111 40 -133z m353 93 c3 -5 -1 -14 -8 -20
-16 -13 -32 2 -21 19 8 12 22 13 29 1z m-846 -44 c2 -10 -3 -17 -12 -17 -18 0
-29 16 -21 31 9 14 29 6 33 -14z m-1840 -69 c-2 -13 -10 -23 -18 -23 -8 0 -16
10 -18 23 -3 17 2 22 18 22 16 0 21 -5 18 -22z m1600 -117 c6 -37 -26 -52 -52
-25 -12 12 -13 20 -5 35 15 28 53 21 57 -10z m312 -361 c-9 -8 -22 -24 -28
-35 -9 -16 -11 -17 -12 -3 0 9 -12 25 -27 36 -26 19 -26 20 -5 26 11 4 24 16
27 26 6 19 8 18 35 -8 27 -26 27 -28 10 -42z m-520 45 c0 -8 -4 -15 -9 -15
-13 0 -22 16 -14 24 11 11 23 6 23 -9z m1130 -11 c0 -8 -9 -14 -20 -14 -22 0
-26 10 -8 28 13 13 28 7 28 -14z m-900 -294 c0 -10 -6 -20 -12 -23 -21 -7 -38
4 -38 23 0 10 6 20 13 23 20 7 37 -4 37 -23z m554 -23 c16 -25 -16 -56 -38
-37 -19 15 -20 32 -4 48 15 15 28 11 42 -11z m-924 -32 c10 -12 10 -18 0 -30
-25 -30 -57 -12 -45 25 8 24 28 26 45 5z m634 -210 c3 -9 -1 -18 -10 -22 -19
-7 -28 2 -21 22 8 19 23 19 31 0z m-354 -110 c0 -8 -7 -15 -15 -15 -8 0 -15 7
-15 15 0 8 7 15 15 15 8 0 15 -7 15 -15z"/>
<path d="M2690 3020 c-327 -104 -789 -451 -1076 -810 -171 -214 -329 -496
-393 -703 -39 -123 -41 -113 48 -201 44 -44 82 -78 85 -75 2 2 18 54 36 114
135 468 383 872 756 1235 191 185 318 287 505 400 81 49 88 56 39 40z"/>
<path d="M2808 2849 c-97 -53 -304 -216 -435 -342 -421 -407 -642 -850 -668
-1337 -9 -159 -3 -186 47 -211 48 -24 262 -109 276 -109 5 0 3 19 -5 42 -44
129 -59 436 -29 615 38 232 99 412 209 617 152 283 350 513 607 700 76 56 76
56 64 56 -5 0 -34 -14 -66 -31z"/>
</g>
</svg>
